<svg width="32" height="32" viewBox="0 0 32 32" fill="none" xmlns="http://www.w3.org/2000/svg">
<path d="M16 29.3333C17.4728 29.3333 18.6667 28.1394 18.6667 26.6667C18.6667 25.1939 17.4728 24 16 24C14.5272 24 13.3333 25.1939 13.3333 26.6667C13.3333 28.1394 14.5272 29.3333 16 29.3333Z" fill="#7F00FF"/>
<path d="M16 8.00002C17.4728 8.00002 18.6667 6.80611 18.6667 5.33335C18.6667 3.86059 17.4728 2.66669 16 2.66669C14.5272 2.66669 13.3333 3.86059 13.3333 5.33335C13.3333 6.80611 14.5272 8.00002 16 8.00002Z" fill="#7F00FF"/>
<path d="M8.45734 26.2093C9.9301 26.2093 11.124 25.0154 11.124 23.5426C11.124 22.0699 9.9301 20.876 8.45734 20.876C6.98458 20.876 5.79067 22.0699 5.79067 23.5426C5.79067 25.0154 6.98458 26.2093 8.45734 26.2093Z" fill="#7F00FF"/>
<path d="M23.5427 11.124C25.0154 11.124 26.2093 9.93008 26.2093 8.45732C26.2093 6.98456 25.0154 5.79065 23.5427 5.79065C22.0699 5.79065 20.876 6.98456 20.876 8.45732C20.876 9.93008 22.0699 11.124 23.5427 11.124Z" fill="#7F00FF"/>
<path d="M5.33334 18.668C6.80684 18.668 8.00134 17.4735 8.00134 16C8.00134 14.5265 6.80684 13.332 5.33334 13.332C3.85985 13.332 2.66534 14.5265 2.66534 16C2.66534 17.4735 3.85985 18.668 5.33334 18.668Z" fill="#7F00FF"/>
<path d="M26.6667 18.6666C28.1394 18.6666 29.3333 17.4727 29.3333 16C29.3333 14.5272 28.1394 13.3333 26.6667 13.3333C25.1939 13.3333 24 14.5272 24 16C24 17.4727 25.1939 18.6666 26.6667 18.6666Z" fill="#7F00FF"/>
<path d="M8.45734 11.1253C9.9301 11.1253 11.124 9.93142 11.124 8.45866C11.124 6.9859 9.9301 5.79199 8.45734 5.79199C6.98458 5.79199 5.79067 6.9859 5.79067 8.45866C5.79067 9.93142 6.98458 11.1253 8.45734 11.1253Z" fill="#7F00FF"/>
<path d="M23.5427 26.2107C25.0154 26.2107 26.2093 25.0167 26.2093 23.544C26.2093 22.0712 25.0154 20.8773 23.5427 20.8773C22.0699 20.8773 20.876 22.0712 20.876 23.544C20.876 25.0167 22.0699 26.2107 23.5427 26.2107Z" fill="#7F00FF"/>
</svg>
